<?xml version="1.0" encoding="utf-8"?>
<!-- Generator: Adobe Illustrator 23.0.1, SVG Export Plug-In . SVG Version: 6.00 Build 0)  -->
<svg version="1.1" id="Слой_1" xmlns="http://www.w3.org/2000/svg" xmlns:xlink="http://www.w3.org/1999/xlink" x="0px" y="0px"
	 viewBox="0 0 300 300" style="enable-background:new 0 0 300 300;" xml:space="preserve">
<style type="text/css">
	.st0{fill:#0263B0;}
	.st1{display:none;}
	.st2{display:inline;fill:#0263B0;}
</style>
<g>
	<path class="st0" d="M296.09,282.03l-71.34-71.34c19.14-22,30.72-50.7,30.72-82.08c0-69.06-56.17-125.16-125.16-125.16
		C61.25,3.46,5.15,59.63,5.15,128.62c0,68.99,56.17,125.17,125.16,125.17c31.37,0,60.08-11.59,82.08-30.72l71.34,71.34
		c1.69,1.69,3.97,2.6,6.18,2.6c2.21,0,4.49-0.84,6.18-2.6C299.47,291.02,299.47,285.42,296.09,282.03z M22.66,128.62
		c0-59.36,48.3-107.59,107.59-107.59c59.36,0,107.59,48.29,107.59,107.59c0,59.3-48.23,107.66-107.59,107.66
		C70.95,236.28,22.66,187.98,22.66,128.62z"/>
</g>
<g class="st1">
	<path class="st2" d="M299,134.11h-18.84V73.87c0-15.3-16-31.3-31.29-31.3h-18.78l-19.22-31.01C207.93,6.28,202.35,3,196.3,3
		c-2.82,0-5.61,0.73-8.08,2.1l-73.78,37.47H32.04c-15.3,0-29.16,16-29.16,31.3v190.47c0,15.29,13.86,29.16,29.16,29.16h216.83
		c15.3,0,31.29-13.87,31.29-29.16v-52.39H299V134.11L299,134.11z M243.99,59.66c8.54,0,15.52,2.63,16.46,10.94h-15.98l-8.22-10.94
		H243.99z M193.62,24.74c2.6-1.46,6.1-0.44,7.54,2.16l21.39,43.69H104.22L193.62,24.74z M260.63,261.09
		c0,9.17-7.47,16.64-16.64,16.64H35.29c-9.18,0-16.64-7.47-16.64-16.64V73.87c0-9.18,7.47-14.21,16.64-14.21h59.21L67.89,70.6H38.75
		c-3.07,0-5.55,5.53-5.55,8.59c0,3.06,2.48,10.42,5.55,10.42h9.18h197.84h14.86v44.51h-35.7c-18.84,0-39.15,18.89-39.15,37.73v2.39
		c0,18.84,20.31,37.72,39.15,37.72h35.7V261.09L260.63,261.09z M282.93,197.3h-2.77h-55.22c-12.73,0-23.08-10.35-23.08-23.08v-2.39
		c0-12.73,10.35-23.08,23.08-23.08h55.22h2.77V197.3z M241.93,173.48c0,6.77-5.48,12.25-12.25,12.25c-6.77,0-12.25-5.48-12.25-12.25
		c0-6.77,5.48-12.25,12.25-12.25C236.45,161.24,241.93,166.72,241.93,173.48z"/>
</g>
<g class="st1">
	<path class="st2" d="M202.36,182.55c27.61-16.81,45.62-46.82,45.62-81.64c0-52.83-43.22-96.05-96.04-96.05
		c-52.82,0-96.05,43.22-96.05,96.05c0,34.82,18.01,64.83,45.62,81.64C53.48,200.56,17.47,242.58,7.86,293h17.28
		c12.01-55.23,67.96-102.78,126.79-102.78c58.83,0,115.35,47.55,127.35,102.78H296C286.4,241.37,250.38,199.36,202.36,182.55z
		 M71.6,100.91c0-44.18,36.15-80.33,80.33-80.33s80.33,36.15,80.33,80.33c0,44.18-36.15,80.33-80.33,80.33
		C107.75,181.24,71.6,145.09,71.6,100.91z"/>
</g>
</svg>
