<?xml version="1.0" encoding="utf-8"?>
<!-- Generator: Adobe Illustrator 23.0.1, SVG Export Plug-In . SVG Version: 6.00 Build 0)  -->
<svg version="1.1" id="Слой_1" xmlns="http://www.w3.org/2000/svg" xmlns:xlink="http://www.w3.org/1999/xlink" x="0px" y="0px"
	 viewBox="0 0 281 208" style="enable-background:new 0 0 281 208;" xml:space="preserve">
<style type="text/css">
	.st0{display:none;}
	.st1{display:inline;fill:#0263B0;}
	.st2{display:inline;fill-rule:evenodd;clip-rule:evenodd;fill:#0263B0;}
	.st3{fill:#0263B0;}
</style>
<g class="st0">
	<path class="st1" d="M296.09,282.03l-71.34-71.34c19.14-22,30.72-50.7,30.72-82.08c0-69.06-56.17-125.16-125.16-125.16
		C61.25,3.46,5.15,59.63,5.15,128.62c0,68.99,56.17,125.17,125.16,125.17c31.37,0,60.08-11.59,82.08-30.72l71.34,71.34
		c1.69,1.69,3.97,2.6,6.18,2.6c2.21,0,4.49-0.84,6.18-2.6C299.47,291.02,299.47,285.42,296.09,282.03z M22.66,128.62
		c0-59.36,48.3-107.59,107.59-107.59c59.36,0,107.59,48.29,107.59,107.59c0,59.3-48.23,107.66-107.59,107.66
		C70.95,236.28,22.66,187.98,22.66,128.62z"/>
</g>
<g class="st0">
	<path class="st1" d="M299,134.11h-18.84V73.87c0-15.3-16-31.3-31.29-31.3h-18.78l-19.22-31.01C207.93,6.28,202.35,3,196.3,3
		c-2.82,0-5.61,0.73-8.08,2.1l-73.78,37.47H32.04c-15.3,0-29.16,16-29.16,31.3v190.47c0,15.29,13.86,29.16,29.16,29.16h216.83
		c15.3,0,31.29-13.87,31.29-29.16v-52.39H299V134.11L299,134.11z M243.99,59.66c8.54,0,15.52,2.63,16.46,10.94h-15.98l-8.22-10.94
		H243.99z M193.62,24.74c2.6-1.46,6.1-0.44,7.54,2.16l21.39,43.69H104.22L193.62,24.74z M260.63,261.09
		c0,9.17-7.47,16.64-16.64,16.64H35.29c-9.18,0-16.64-7.47-16.64-16.64V73.87c0-9.18,7.47-14.21,16.64-14.21h59.21L67.89,70.6H38.75
		c-3.07,0-5.55,5.53-5.55,8.59c0,3.06,2.48,10.42,5.55,10.42h9.18h197.84h14.86v44.51h-35.7c-18.84,0-39.15,18.89-39.15,37.73v2.39
		c0,18.84,20.31,37.72,39.15,37.72h35.7V261.09L260.63,261.09z M282.93,197.3h-2.77h-55.22c-12.73,0-23.08-10.35-23.08-23.08v-2.39
		c0-12.73,10.35-23.08,23.08-23.08h55.22h2.77V197.3z M241.93,173.48c0,6.77-5.48,12.25-12.25,12.25c-6.77,0-12.25-5.48-12.25-12.25
		c0-6.77,5.48-12.25,12.25-12.25C236.45,161.24,241.93,166.72,241.93,173.48z"/>
</g>
<g class="st0">
	<path class="st1" d="M202.36,182.55c27.61-16.81,45.62-46.82,45.62-81.64c0-52.83-43.22-96.05-96.04-96.05
		c-52.82,0-96.05,43.22-96.05,96.05c0,34.82,18.01,64.83,45.62,81.64C53.48,200.56,17.47,242.58,7.86,293h17.28
		c12.01-55.23,67.96-102.78,126.79-102.78c58.83,0,115.35,47.55,127.35,102.78H296C286.4,241.37,250.38,199.36,202.36,182.55z
		 M71.6,100.91c0-44.18,36.15-80.33,80.33-80.33s80.33,36.15,80.33,80.33c0,44.18-36.15,80.33-80.33,80.33
		C107.75,181.24,71.6,145.09,71.6,100.91z"/>
</g>
<g class="st0">
	<path class="st2" d="M11.21,1h259.3c5.97,0,10.8,4.84,10.8,10.8s-4.84,10.8-10.8,10.8H11.21c-5.97,0-10.8-4.84-10.8-10.8
		S5.24,1,11.21,1z"/>
	<path class="st2" d="M11.21,93.2h259.3c5.97,0,10.8,4.84,10.8,10.8c0,5.97-4.84,10.81-10.8,10.81H11.21
		c-5.97,0-10.8-4.84-10.8-10.81C0.4,98.04,5.24,93.2,11.21,93.2z"/>
	<path class="st2" d="M11.21,185.39h259.3c5.97,0,10.8,4.84,10.8,10.8c0,5.97-4.84,10.8-10.8,10.8H11.21
		c-5.97,0-10.8-4.84-10.8-10.8C0.4,190.23,5.24,185.39,11.21,185.39z"/>
</g>
<g>
	<path class="st3" d="M80.58,128.42c4.21-4.38,9.29-6.73,14.67-6.73c5.34,0,10.46,2.3,14.85,6.69l13.72,13.67
		c1.13-0.61,2.26-1.17,3.34-1.74c1.56-0.78,3.04-1.52,4.3-2.3c12.85-8.16,24.53-18.8,35.73-32.56c5.43-6.86,9.07-12.63,11.72-18.49
		c-3.56-3.26-6.86-6.64-10.07-9.9c-1.22-1.21-2.43-2.47-3.65-3.69c-9.12-9.12-9.12-20.92,0-30.04l11.85-11.85
		c1.35-1.34,2.74-2.73,4.04-4.12c2.6-2.69,5.34-5.47,8.16-8.08c4.21-4.17,9.25-6.38,14.54-6.38c5.3,0,10.42,2.21,14.76,6.38
		c0.04,0.05,0.04,0.05,0.09,0.09l14.76,14.89c5.56,5.56,8.73,12.33,9.42,20.19c1.04,12.68-2.69,24.48-5.56,32.21
		c-7.03,18.97-17.54,36.56-33.21,55.4c-19.02,22.7-41.89,40.63-68.03,53.27c-9.99,4.73-23.31,10.33-38.2,11.29
		c-0.91,0.04-1.87,0.09-2.74,0.09c-10.03,0-18.45-3.6-25.05-10.77c-0.04-0.09-0.13-0.13-0.17-0.22c-2.26-2.73-4.86-5.21-7.6-7.86
		c-1.87-1.78-3.78-3.65-5.64-5.6c-4.3-4.47-6.56-9.68-6.56-15.02c0-5.38,2.3-10.55,6.69-14.89L80.58,128.42z M66.42,172.75
		C66.46,172.75,66.46,172.79,66.42,172.75c1.66,1.79,3.36,3.41,5.2,5.2c2.77,2.64,5.58,5.41,8.22,8.52c4.3,4.6,9.37,6.77,16.01,6.77
		c0.64,0,1.32,0,1.96-0.04c12.65-0.81,24.41-5.75,33.22-9.97c24.11-11.67,45.28-28.24,62.87-49.24
		c14.52-17.51,24.23-33.69,30.67-51.07c3.96-10.61,5.41-18.87,4.77-26.66c-0.43-4.98-2.34-9.12-5.88-12.65l-11.7-13.12
		c-2.09-1.96-4.3-3.02-6.47-3.02c-2.68,0-4.86,1.62-6.22,2.98c-0.04,0.04-0.09,0.08-0.13,0.13c-2.6,2.43-5.07,4.94-7.67,7.62
		c-1.32,1.36-2.68,2.73-4.05,4.13l-11.63,11.63c-4.51,4.51-4.51,8.69,0,13.2c1.24,1.23,2.43,2.47,3.66,3.66
		c3.58,3.66,7.87,6.6,11.64,9.99c0.09,0.08-0.78,0.54-0.74,0.62c3.66,3.66,4,6.98,3.21,9.45c-0.04,0.13-0.09,0.26-0.13,0.39
		c-3.08,7.47-8.99,16.55-15.46,24.77l-0.04,0.04c-11.76,14.48-28.38,27.18-42.05,35.83c-1.75,1.11-4.24,2-5.94,2.85
		c-1.53,0.77-2.98,1.49-4.22,2.26c-0.17,0.08-0.34,0.21-0.51,0.3c-1.45,0.72-2.81,1.07-4.22,1.07c-3.54,0-5.75-2.21-6.47-2.94
		l-14.57-17.39c-1.45-1.45-3.75-3.19-6.43-3.19c-2.64,0-4.81,1.66-6.13,3.11c-0.04,0.04-0.04,0.04-0.09,0.08l-20.65,21.35
		C62.07,163.76,62.07,168.24,66.42,172.75z"/>
	<path class="st3" d="M131.99,49.93c-11.37,1.91-21.71,7.3-29.96,15.54c-8.25,8.25-13.59,18.58-15.54,29.96
		c-0.48,2.86-2.95,4.86-5.77,4.86c-0.35,0-0.65-0.04-1-0.08c-3.21-0.52-5.34-3.56-4.82-6.77c2.34-13.76,8.86-26.31,18.8-36.25
		s22.49-16.45,36.25-18.8c3.21-0.52,6.21,1.61,6.77,4.78C137.28,46.33,135.2,49.41,131.99,49.93z"/>
	<path class="st3" d="M37.69,91.74c3.86-22.66,14.54-43.28,30.95-59.69c16.41-16.41,37.03-27.09,59.69-30.95
		c3.17-0.56,6.17,1.61,6.73,4.78c0.52,3.21-1.61,6.21-4.82,6.77c-20.23,3.43-38.68,13.02-53.36,27.65
		C62.22,54.97,52.67,73.42,49.24,93.65c-0.48,2.86-2.95,4.86-5.77,4.86c-0.35,0-0.65-0.04-1-0.09
		C39.3,97.94,37.13,94.91,37.69,91.74z"/>
</g>
</svg>
